<svg viewBox="0 0 16 16" fill="none" xmlns="http://www.w3.org/2000/svg">
<path d="M12.2188 0H5.70397C5.20316 0 4.73228 0.195031 4.37816 0.549187L2.45544 2.47191C2.10128 2.82606 1.90625 3.29691 1.90625 3.79772V14.125C1.90625 15.1589 2.74738 16 3.78125 16H12.2188C13.2526 16 14.0938 15.1589 14.0938 14.125V1.875C14.0938 0.841125 13.2526 0 12.2188 0ZM12.8438 14.125C12.8438 14.4696 12.5634 14.75 12.2188 14.75H3.78125C3.43663 14.75 3.15625 14.4696 3.15625 14.125V3.79772C3.15625 3.63078 3.22128 3.47384 3.33931 3.35578L5.26203 1.43306C5.38009 1.31503 5.53703 1.25 5.70397 1.25H12.2188C12.5634 1.25 12.8438 1.53038 12.8438 1.875V14.125Z" fill="black"/>
<path d="M10.7825 5.52425C10.5187 5.30166 10.1243 5.33516 9.90175 5.59897L7.03918 8.99228L6.12193 7.75944C5.91593 7.48253 5.52437 7.42503 5.24743 7.63109C4.97053 7.83712 4.91303 8.22865 5.11909 8.50559L6.50703 10.3711C6.74631 10.6927 7.22522 10.7104 7.48618 10.401L10.8572 6.40497C11.0798 6.14116 11.0463 5.74684 10.7825 5.52425Z" fill="black"/>
</svg>
