<svg viewBox="0 0 28 28" fill="none" xmlns="http://www.w3.org/2000/svg">
<path fill-rule="evenodd" clip-rule="evenodd" d="M13.2977 8.69556C12.1845 7.19776 10.3246 6.45187 8.4849 6.76548C6.64525 7.07909 5.1375 8.39908 4.58341 10.1811C4.03044 11.9595 4.52072 13.8974 5.85202 15.1989C5.85663 15.2032 5.86121 15.2077 5.86575 15.2122L14 23.2684L22.1343 15.2122C22.1558 15.1909 22.1781 15.171 22.2011 15.1524C23.4795 13.8501 23.9407 11.9477 23.3952 10.2012C22.8407 8.42566 21.3391 7.10984 19.5061 6.7933C17.6732 6.47675 15.8172 7.21274 14.6993 8.69946C14.5335 8.91997 14.2734 9.04937 13.9975 9.0486C13.7216 9.04783 13.4623 8.91699 13.2977 8.69556ZM23.2955 16.5251L14.6158 25.1216C14.2747 25.4593 13.7253 25.4593 13.3843 25.1216L4.64265 16.4638C4.64168 16.4629 4.64071 16.462 4.63975 16.461C2.83024 14.7002 2.16267 12.0725 2.91232 9.66151C3.66198 7.25053 5.70188 5.46466 8.19082 5.04037C10.3269 4.67623 12.4831 5.36787 14.0037 6.85225C15.5267 5.38184 17.6768 4.70147 19.8039 5.06882C22.2838 5.49709 24.3155 7.27731 25.0657 9.6795C25.8159 12.0817 25.1585 14.7017 23.3631 16.4652C23.3414 16.4865 23.3188 16.5065 23.2955 16.5251Z" fill="#5F5F5F"/>
</svg>
