<svg viewBox="0 0 140 34" fill="none" xmlns="http://www.w3.org/2000/svg">
<path d="M25.0087 30.0102H16.2273L8.18468 20.7456C7.75839 21.2287 0.682056 29.2145 0 29.9534V20.9446C4.09234 16.3407 10.0035 9.63378 14.0674 5.0299H22.0247L12.3623 15.9996L25.0087 30.0102Z" fill="white"/>
<path d="M5.62679 0V9.34986C4.85947 10.2024 0.880814 14.6074 0.028244 15.5452L0.0566626 0H5.62679Z" fill="#FF6600"/>
<path d="M32.9143 25.3663H45.9529L45.5653 20.8204H33.3372L32.9143 25.3663ZM39.3631 14.5125L42.8518 22.5119L42.6404 24.0272L45.6005 30.1236H52.3665L39.3631 3.90537L26.395 30.1236H33.1257L36.1916 23.7805L35.9096 22.4766L39.3631 14.5125Z" fill="white"/>
<path d="M69.5855 14.9706L74.6952 29.0664H81.5669L69.5855 4.22253L57.5688 29.0664H64.4405L69.5855 14.9706ZM77.6906 30.1236V34H83.6108V25.0139H55.5249V34H61.4451V30.1236H77.6906Z" fill="white"/>
<path d="M88.5033 5.45591V30.1236H94.4588V5.45591H88.5033ZM92.2387 10.3542H97.0666C98.2647 10.3542 99.2044 10.6244 99.8857 11.1647C100.567 11.7051 100.908 12.4921 100.908 13.5258C100.908 14.536 100.567 15.3112 99.8857 15.8516C99.2044 16.3919 98.2647 16.6621 97.0666 16.6621H92.2387V21.5604H97.0666C99.1574 21.5604 100.908 21.2432 102.317 20.6089C103.75 19.9511 104.831 19.0232 105.559 17.825C106.288 16.6034 106.652 15.1703 106.652 13.5258C106.652 11.8343 106.288 10.3895 105.559 9.19131C104.831 7.99316 103.75 7.07693 102.317 6.44262C100.908 5.78482 99.1574 5.45591 97.0666 5.45591H92.2387V10.3542Z" fill="white"/>
<path d="M111.164 5.45591V30.1236H117.12V5.45591H111.164ZM114.899 18.9174H119.727C120.526 18.9174 121.207 19.0349 121.771 19.2698C122.358 19.5048 122.805 19.8572 123.11 20.327C123.416 20.7969 123.568 21.3725 123.568 22.0538C123.568 22.7351 123.416 23.3224 123.11 23.8157C122.805 24.2856 122.358 24.638 121.771 24.8729C121.207 25.1078 120.526 25.2253 119.727 25.2253H114.899V30.1236H119.727C121.818 30.1236 123.568 29.8065 124.978 29.1721C126.411 28.5143 127.492 27.5864 128.22 26.3882C128.948 25.1666 129.312 23.7218 129.312 22.0538C129.312 20.3857 128.948 18.9527 128.22 17.7545C127.492 16.5564 126.411 15.6402 124.978 15.0058C123.568 14.348 121.818 14.0191 119.727 14.0191H114.899V18.9174Z" fill="white"/>
<path d="M133.57 29.7833V20.8881L139.631 14.0675V29.7833H133.57Z" fill="#FF6600"/>
<path d="M133.57 15.4884V5.11543H139.538V9.23619L133.57 15.4884Z" fill="white"/>
</svg>
