<svg viewBox="0 0 28 28" fill="none" xmlns="http://www.w3.org/2000/svg">
<path fill-rule="evenodd" clip-rule="evenodd" d="M12.1441 6.56673C12.2519 6.4967 12.3402 6.40558 12.406 6.30156C12.4968 6.1578 12.5446 5.9894 12.5417 5.81792C12.55 5.01961 13.1997 4.375 14 4.375C14.8054 4.375 15.4583 5.02792 15.4583 5.83333C15.4583 6.17169 15.6534 6.47972 15.9593 6.62436C18.3909 7.77417 19.9916 10.169 20.125 12.8544V16.3333C20.125 16.3685 20.1271 16.4036 20.1313 16.4385C20.2426 17.3579 20.5803 18.2208 21.0984 18.9583H6.90154C7.4197 18.2208 7.75734 17.3579 7.86864 16.4385C7.87286 16.4036 7.87498 16.3685 7.87498 16.3333V12.8544C8.00805 10.1751 9.60172 7.78511 12.024 6.63225C12.0659 6.6135 12.106 6.59155 12.1441 6.56673ZM10.8406 5.27168C8.07296 6.77498 6.27476 9.62182 6.12594 12.7923C6.1253 12.806 6.12498 12.8197 6.12498 12.8333V16.2778C5.96707 17.4525 5.26851 18.487 4.23549 19.0719C3.88969 19.2677 3.71927 19.672 3.82052 20.0563C3.92177 20.4405 4.26926 20.7083 4.66665 20.7083H23.3333C23.7307 20.7083 24.0782 20.4405 24.1794 20.0563C24.2807 19.672 24.1103 19.2677 23.7645 19.0719C22.7314 18.487 22.0329 17.4525 21.875 16.2778V12.8333C21.875 12.8197 21.8747 12.806 21.874 12.7923C21.7252 9.62182 19.927 6.77498 17.1593 5.27168C16.8937 3.76756 15.5803 2.625 14 2.625C12.4197 2.625 11.1062 3.76756 10.8406 5.27168Z" fill="#5F5F5F"/>
<path fill-rule="evenodd" clip-rule="evenodd" d="M10.5 18.9583C10.9832 18.9583 11.375 19.3501 11.375 19.8333V21C11.375 22.4497 12.5503 23.625 14 23.625C15.4497 23.625 16.625 22.4497 16.625 21V19.8333C16.625 19.3501 17.0168 18.9583 17.5 18.9583C17.9832 18.9583 18.375 19.3501 18.375 19.8333V21C18.375 23.4162 16.4162 25.375 14 25.375C11.5838 25.375 9.625 23.4162 9.625 21V19.8333C9.625 19.3501 10.0168 18.9583 10.5 18.9583Z" fill="#5F5F5F"/>
</svg>
