<svg viewBox="0 0 20 20" fill="none" xmlns="http://www.w3.org/2000/svg">
<path fill-rule="evenodd" clip-rule="evenodd" d="M1.875 17.5C1.875 17.1548 2.15482 16.875 2.5 16.875H17.5C17.8452 16.875 18.125 17.1548 18.125 17.5C18.125 17.8452 17.8452 18.125 17.5 18.125H2.5C2.15482 18.125 1.875 17.8452 1.875 17.5Z" fill="white"/>
<path fill-rule="evenodd" clip-rule="evenodd" d="M1.875 17.5C1.875 17.1548 2.15482 16.875 2.5 16.875H17.5C17.8452 16.875 18.125 17.1548 18.125 17.5C18.125 17.8452 17.8452 18.125 17.5 18.125H2.5C2.15482 18.125 1.875 17.8452 1.875 17.5Z" fill="black" fill-opacity="0.87"/>
<path fill-rule="evenodd" clip-rule="evenodd" d="M11.1619 1.96834C11.3462 2.08222 11.4583 2.28339 11.4583 2.5V17.5C11.4583 17.8452 11.1785 18.125 10.8333 18.125C10.4882 18.125 10.2083 17.8452 10.2083 17.5V3.51127L4.79167 6.2196V17.5C4.79167 17.8452 4.51185 18.125 4.16667 18.125C3.82149 18.125 3.54167 17.8452 3.54167 17.5V5.83333C3.54167 5.5966 3.67542 5.38019 3.88716 5.27432L10.5538 1.94098C10.7476 1.84411 10.9777 1.85446 11.1619 1.96834Z" fill="white"/>
<path fill-rule="evenodd" clip-rule="evenodd" d="M11.1619 1.96834C11.3462 2.08222 11.4583 2.28339 11.4583 2.5V17.5C11.4583 17.8452 11.1785 18.125 10.8333 18.125C10.4882 18.125 10.2083 17.8452 10.2083 17.5V3.51127L4.79167 6.2196V17.5C4.79167 17.8452 4.51185 18.125 4.16667 18.125C3.82149 18.125 3.54167 17.8452 3.54167 17.5V5.83333C3.54167 5.5966 3.67542 5.38019 3.88716 5.27432L10.5538 1.94098C10.7476 1.84411 10.9777 1.85446 11.1619 1.96834Z" fill="black" fill-opacity="0.87"/>
<path fill-rule="evenodd" clip-rule="evenodd" d="M10.3133 5.48665C10.5048 5.19944 10.8928 5.12183 11.18 5.3133L16.18 8.64664C16.3539 8.76255 16.4583 8.9577 16.4583 9.16667V17.5C16.4583 17.8452 16.1785 18.125 15.8333 18.125C15.4882 18.125 15.2083 17.8452 15.2083 17.5V9.50116L10.4866 6.35337C10.1994 6.16189 10.1218 5.77385 10.3133 5.48665Z" fill="white"/>
<path fill-rule="evenodd" clip-rule="evenodd" d="M10.3133 5.48665C10.5048 5.19944 10.8928 5.12183 11.18 5.3133L16.18 8.64664C16.3539 8.76255 16.4583 8.9577 16.4583 9.16667V17.5C16.4583 17.8452 16.1785 18.125 15.8333 18.125C15.4882 18.125 15.2083 17.8452 15.2083 17.5V9.50116L10.4866 6.35337C10.1994 6.16189 10.1218 5.77385 10.3133 5.48665Z" fill="black" fill-opacity="0.87"/>
<path fill-rule="evenodd" clip-rule="evenodd" d="M7.5 6.875C7.84518 6.875 8.125 7.15483 8.125 7.5V7.50834C8.125 7.85352 7.84518 8.13334 7.5 8.13334C7.15482 8.13334 6.875 7.85352 6.875 7.50834V7.5C6.875 7.15483 7.15482 6.875 7.5 6.875Z" fill="white"/>
<path fill-rule="evenodd" clip-rule="evenodd" d="M7.5 6.875C7.84518 6.875 8.125 7.15483 8.125 7.5V7.50834C8.125 7.85352 7.84518 8.13334 7.5 8.13334C7.15482 8.13334 6.875 7.85352 6.875 7.50834V7.5C6.875 7.15483 7.15482 6.875 7.5 6.875Z" fill="black" fill-opacity="0.87"/>
<path fill-rule="evenodd" clip-rule="evenodd" d="M7.5 9.375C7.84518 9.375 8.125 9.65483 8.125 10V10.0083C8.125 10.3535 7.84518 10.6333 7.5 10.6333C7.15482 10.6333 6.875 10.3535 6.875 10.0083V10C6.875 9.65483 7.15482 9.375 7.5 9.375Z" fill="white"/>
<path fill-rule="evenodd" clip-rule="evenodd" d="M7.5 9.375C7.84518 9.375 8.125 9.65483 8.125 10V10.0083C8.125 10.3535 7.84518 10.6333 7.5 10.6333C7.15482 10.6333 6.875 10.3535 6.875 10.0083V10C6.875 9.65483 7.15482 9.375 7.5 9.375Z" fill="black" fill-opacity="0.87"/>
<path fill-rule="evenodd" clip-rule="evenodd" d="M7.5 11.875C7.84518 11.875 8.125 12.1548 8.125 12.5V12.5083C8.125 12.8535 7.84518 13.1333 7.5 13.1333C7.15482 13.1333 6.875 12.8535 6.875 12.5083V12.5C6.875 12.1548 7.15482 11.875 7.5 11.875Z" fill="white"/>
<path fill-rule="evenodd" clip-rule="evenodd" d="M7.5 11.875C7.84518 11.875 8.125 12.1548 8.125 12.5V12.5083C8.125 12.8535 7.84518 13.1333 7.5 13.1333C7.15482 13.1333 6.875 12.8535 6.875 12.5083V12.5C6.875 12.1548 7.15482 11.875 7.5 11.875Z" fill="black" fill-opacity="0.87"/>
<path fill-rule="evenodd" clip-rule="evenodd" d="M7.5 14.375C7.84518 14.375 8.125 14.6548 8.125 15V15.0083C8.125 15.3535 7.84518 15.6333 7.5 15.6333C7.15482 15.6333 6.875 15.3535 6.875 15.0083V15C6.875 14.6548 7.15482 14.375 7.5 14.375Z" fill="white"/>
<path fill-rule="evenodd" clip-rule="evenodd" d="M7.5 14.375C7.84518 14.375 8.125 14.6548 8.125 15V15.0083C8.125 15.3535 7.84518 15.6333 7.5 15.6333C7.15482 15.6333 6.875 15.3535 6.875 15.0083V15C6.875 14.6548 7.15482 14.375 7.5 14.375Z" fill="black" fill-opacity="0.87"/>
</svg>
