<svg viewBox="0 0 20 20" fill="none" xmlns="http://www.w3.org/2000/svg">
<path fill-rule="evenodd" clip-rule="evenodd" d="M1.875 5.83333C1.875 4.10744 3.27411 2.70833 5 2.70833H15C16.7259 2.70833 18.125 4.10744 18.125 5.83333V14.1667C18.125 15.8926 16.7259 17.2917 15 17.2917H5C3.27411 17.2917 1.875 15.8926 1.875 14.1667V5.83333ZM5 3.95833C3.96447 3.95833 3.125 4.7978 3.125 5.83333V14.1667C3.125 15.2022 3.96447 16.0417 5 16.0417H15C16.0355 16.0417 16.875 15.2022 16.875 14.1667V5.83333C16.875 4.7978 16.0355 3.95833 15 3.95833H5Z" fill="white"/>
<path fill-rule="evenodd" clip-rule="evenodd" d="M1.875 5.83333C1.875 4.10744 3.27411 2.70833 5 2.70833H15C16.7259 2.70833 18.125 4.10744 18.125 5.83333V14.1667C18.125 15.8926 16.7259 17.2917 15 17.2917H5C3.27411 17.2917 1.875 15.8926 1.875 14.1667V5.83333ZM5 3.95833C3.96447 3.95833 3.125 4.7978 3.125 5.83333V14.1667C3.125 15.2022 3.96447 16.0417 5 16.0417H15C16.0355 16.0417 16.875 15.2022 16.875 14.1667V5.83333C16.875 4.7978 16.0355 3.95833 15 3.95833H5Z" fill="black" fill-opacity="0.87"/>
<path fill-rule="evenodd" clip-rule="evenodd" d="M7.5 7.29167C6.92471 7.29167 6.45834 7.75804 6.45834 8.33333C6.45834 8.90863 6.92471 9.375 7.5 9.375C8.0753 9.375 8.54167 8.90863 8.54167 8.33333C8.54167 7.75804 8.0753 7.29167 7.5 7.29167ZM5.20834 8.33333C5.20834 7.06768 6.23435 6.04167 7.5 6.04167C8.76566 6.04167 9.79167 7.06768 9.79167 8.33333C9.79167 9.59899 8.76566 10.625 7.5 10.625C6.23435 10.625 5.20834 9.59899 5.20834 8.33333Z" fill="white"/>
<path fill-rule="evenodd" clip-rule="evenodd" d="M7.5 7.29167C6.92471 7.29167 6.45834 7.75804 6.45834 8.33333C6.45834 8.90863 6.92471 9.375 7.5 9.375C8.0753 9.375 8.54167 8.90863 8.54167 8.33333C8.54167 7.75804 8.0753 7.29167 7.5 7.29167ZM5.20834 8.33333C5.20834 7.06768 6.23435 6.04167 7.5 6.04167C8.76566 6.04167 9.79167 7.06768 9.79167 8.33333C9.79167 9.59899 8.76566 10.625 7.5 10.625C6.23435 10.625 5.20834 9.59899 5.20834 8.33333Z" fill="black" fill-opacity="0.87"/>
<path fill-rule="evenodd" clip-rule="evenodd" d="M11.875 6.66667C11.875 6.32149 12.1548 6.04167 12.5 6.04167H14.1667C14.5118 6.04167 14.7917 6.32149 14.7917 6.66667C14.7917 7.01184 14.5118 7.29167 14.1667 7.29167H12.5C12.1548 7.29167 11.875 7.01184 11.875 6.66667Z" fill="white"/>
<path fill-rule="evenodd" clip-rule="evenodd" d="M11.875 6.66667C11.875 6.32149 12.1548 6.04167 12.5 6.04167H14.1667C14.5118 6.04167 14.7917 6.32149 14.7917 6.66667C14.7917 7.01184 14.5118 7.29167 14.1667 7.29167H12.5C12.1548 7.29167 11.875 7.01184 11.875 6.66667Z" fill="black" fill-opacity="0.87"/>
<path fill-rule="evenodd" clip-rule="evenodd" d="M11.875 10C11.875 9.65482 12.1548 9.375 12.5 9.375H14.1667C14.5118 9.375 14.7917 9.65482 14.7917 10C14.7917 10.3452 14.5118 10.625 14.1667 10.625H12.5C12.1548 10.625 11.875 10.3452 11.875 10Z" fill="white"/>
<path fill-rule="evenodd" clip-rule="evenodd" d="M11.875 10C11.875 9.65482 12.1548 9.375 12.5 9.375H14.1667C14.5118 9.375 14.7917 9.65482 14.7917 10C14.7917 10.3452 14.5118 10.625 14.1667 10.625H12.5C12.1548 10.625 11.875 10.3452 11.875 10Z" fill="black" fill-opacity="0.87"/>
<path fill-rule="evenodd" clip-rule="evenodd" d="M5.20834 13.3333C5.20834 12.9882 5.48816 12.7083 5.83334 12.7083H14.1667C14.5118 12.7083 14.7917 12.9882 14.7917 13.3333C14.7917 13.6785 14.5118 13.9583 14.1667 13.9583H5.83334C5.48816 13.9583 5.20834 13.6785 5.20834 13.3333Z" fill="white"/>
<path fill-rule="evenodd" clip-rule="evenodd" d="M5.20834 13.3333C5.20834 12.9882 5.48816 12.7083 5.83334 12.7083H14.1667C14.5118 12.7083 14.7917 12.9882 14.7917 13.3333C14.7917 13.6785 14.5118 13.9583 14.1667 13.9583H5.83334C5.48816 13.9583 5.20834 13.6785 5.20834 13.3333Z" fill="black" fill-opacity="0.87"/>
</svg>
